# xmcd
#
# Track frame offsets:
#	150
#	14913
#	28994
#	45861
#	60104
#	78551
#	90920
#	108890
#	123312
#	139672
#	162543
#	181533
#	194582
#
# Disc length: 2633 seconds
# Revision: 1
# Processed by: cddbd v1.5.2PL0 Copyright (c) Steve Scherf et al.
# Submitted via: dBpowerAMP V12.0
#
DISCID=9f0a470d
DTITLE=Carrie Hassler and Hard Rain - CHHR2
DYEAR=2008
DGENRE=Country
TTITLE0=I Can Go Back Anytime
TTITLE1=Faith and Hope
TTITLE2=Country Strong
TTITLE3=Fickle Heart
TTITLE4=I Don't Want to Wake Up
TTITLE5=Second Chances
TTITLE6=Devil's Den
TTITLE7=One Way Track to Nowhere
TTITLE8=If These Walls Could Talk
TTITLE9=Turn the Page
TTITLE10=She's a Stranger in His Mind
TTITLE11=1800 Miles
TTITLE12="Where's Carrie?" Jam
EXTD=
EXTT0=
EXTT1=
EXTT2=
EXTT3=
EXTT4=
EXTT5=
EXTT6=
EXTT7=
EXTT8=
EXTT9=
EXTT10=
EXTT11=
EXTT12=
PLAYORDER=
